<?xml version="1.0" encoding="UTF-8"?>
<svg xmlns="http://www.w3.org/2000/svg" xmlns:xlink="http://www.w3.org/1999/xlink" width="20px" height="20px" viewBox="0 0 20 20" version="1.1">
<g id="surface1">
<path style=" stroke:none;fill-rule:evenodd;fill:#12c10c;fill-opacity:1;" d="M 5 2.5 C 3.621094 2.5 2.5 3.621094 2.5 5 L 2.5 15 C 2.5 16.378906 3.621094 17.5 5 17.5 L 15 17.5 C 16.378906 17.5 17.5 16.378906 17.5 15 L 17.5 5 C 17.5 3.621094 16.378906 2.5 15 2.5 Z M 14.832031 7.167969 C 15.109375 6.796875 15.035156 6.277344 14.667969 6 C 14.296875 5.722656 13.777344 5.796875 13.5 6.167969 L 9.078125 12.066406 L 7.257812 10.242188 C 6.929688 9.917969 6.402344 9.917969 6.078125 10.242188 C 5.753906 10.570312 5.753906 11.097656 6.078125 11.421875 L 8.578125 13.921875 C 8.75 14.09375 8.984375 14.183594 9.226562 14.164062 C 9.464844 14.148438 9.6875 14.027344 9.832031 13.832031 Z M 14.832031 7.167969 "/>
</g>
</svg>
